<?xml version="1.0" encoding="UTF-8"?>
<svg width="701px" height="461px" viewBox="0 0 701 461" version="1.1" xmlns="http://www.w3.org/2000/svg" xmlns:xlink="http://www.w3.org/1999/xlink">
    <title>Group Copy</title>
    <g id="misc" stroke="none" stroke-width="1" fill="none" fill-rule="evenodd">
        <g id="rxdeep-banner-dark" transform="translate(-1396.000000, -598.000000)" fill="#FFFFFF" fill-rule="nonzero">
            <g id="Group-Copy" transform="translate(1396.000000, 598.000000)">
                <path d="M13.728,345 L13.728,316.776 L36.96,316.776 L51.264,345 L55.008,345 L55.68,343.656 L42.048,316.68 C49.856,316.04 53.76,311.464 53.76,302.952 L53.76,302.952 L53.76,292.584 C53.76,283.368 49.152,278.76 39.936,278.76 L39.936,278.76 L9.12,278.76 L9.12,345 L13.728,345 Z M40.512,312.552 L13.728,312.552 L13.728,282.984 L40.512,282.984 C46.272,282.984 49.152,285.864 49.152,291.624 L49.152,291.624 L49.152,303.816 C49.152,309.64 46.272,312.552 40.512,312.552 L40.512,312.552 Z M103.584,345 L106.272,342.984 L106.272,341.16 L81.6,341.16 C75.648,341.16 72.672,338.184 72.672,332.232 L72.672,332.232 L72.672,322.056 L108.192,322.056 L108.192,309.288 C108.192,300.136 103.648,295.56 94.56,295.56 L94.56,295.56 L82.08,295.56 C72.928,295.56 68.352,300.136 68.352,309.288 L68.352,309.288 L68.352,331.272 C68.352,340.424 72.928,345 82.08,345 L82.08,345 L103.584,345 Z M103.872,318.216 L72.672,318.216 L72.672,308.328 C72.672,302.376 75.648,299.4 81.6,299.4 L81.6,299.4 L94.944,299.4 C100.896,299.4 103.872,302.376 103.872,308.328 L103.872,308.328 L103.872,318.216 Z M159.36,345 L159.36,309.288 C159.36,300.136 154.816,295.56 145.728,295.56 L145.728,295.56 L128.16,295.56 L125.472,297.576 L125.472,299.4 L146.112,299.4 C152.064,299.4 155.04,302.376 155.04,308.328 L155.04,308.328 L155.04,316.968 L134.88,316.968 C125.664,316.968 121.056,321.64 121.056,330.984 C121.056,340.328 125.664,345 134.88,345 L134.88,345 L159.36,345 Z M155.04,341.16 L134.304,341.16 C128.352,341.16 125.376,338.184 125.376,332.232 L125.376,332.232 L125.376,329.736 C125.376,323.784 128.352,320.808 134.304,320.808 L134.304,320.808 L155.04,320.808 L155.04,341.16 Z M207.648,345 L210.336,342.984 L210.336,341.16 L187.776,341.16 C181.824,341.16 178.848,338.184 178.848,332.232 L178.848,332.232 L178.848,308.328 C178.848,302.376 181.824,299.4 187.776,299.4 L187.776,299.4 L210.336,299.4 L210.336,297.576 L207.648,295.56 L188.256,295.56 C179.104,295.56 174.528,300.136 174.528,309.288 L174.528,309.288 L174.528,331.272 C174.528,340.424 179.104,345 188.256,345 L188.256,345 L207.648,345 Z M244.416,345 L247.104,342.984 L247.104,341.16 L235.776,341.16 C229.824,341.16 226.848,338.184 226.848,332.232 L226.848,332.232 L226.848,299.4 L246.144,299.4 L246.144,295.56 L226.848,295.56 L226.848,278.76 L222.528,278.76 L222.528,331.272 C222.528,340.424 227.104,345 236.256,345 L236.256,345 L244.416,345 Z M263.52,285.672 L263.52,279.048 L258.24,279.048 L258.24,285.672 L263.52,285.672 Z M263.04,345 L263.04,295.56 L258.72,295.56 L258.72,345 L263.04,345 Z M299.328,345 L316.992,296.52 L316.416,295.56 L312.672,295.56 L296.352,341.16 L293.856,341.16 L277.536,295.56 L273.792,295.56 L273.216,296.52 L290.976,345 L299.328,345 Z M361.632,345 L364.32,342.984 L364.32,341.16 L339.648,341.16 C333.696,341.16 330.72,338.184 330.72,332.232 L330.72,332.232 L330.72,322.056 L366.24,322.056 L366.24,309.288 C366.24,300.136 361.696,295.56 352.608,295.56 L352.608,295.56 L340.128,295.56 C330.976,295.56 326.4,300.136 326.4,309.288 L326.4,309.288 L326.4,331.272 C326.4,340.424 330.976,345 340.128,345 L340.128,345 L361.632,345 Z M361.92,318.216 L330.72,318.216 L330.72,308.328 C330.72,302.376 333.696,299.4 339.648,299.4 L339.648,299.4 L352.992,299.4 C358.944,299.4 361.92,302.376 361.92,308.328 L361.92,308.328 L361.92,318.216 Z M431.808,345 C441.024,345 445.632,340.392 445.632,331.176 L445.632,331.176 L445.632,324.552 C445.632,316.936 442.304,312.456 435.648,311.112 L435.648,311.112 L413.856,306.792 C409.632,305.96 407.52,303.144 407.52,298.344 L407.52,298.344 L407.52,291.624 C407.52,285.864 410.432,282.984 416.256,282.984 L416.256,282.984 L443.712,282.984 L443.712,281.16 L440.736,278.76 L416.736,278.76 C407.52,278.76 402.912,283.368 402.912,292.584 L402.912,292.584 L402.912,297.576 C402.912,305.192 406.24,309.672 412.896,311.016 L412.896,311.016 L434.688,315.432 C438.912,316.264 441.024,319.048 441.024,323.784 L441.024,323.784 L441.024,332.136 C441.024,337.896 438.144,340.776 432.384,340.776 L432.384,340.776 L402.912,340.776 L402.912,342.6 L405.984,345 L431.808,345 Z M481.536,345 L484.224,342.984 L484.224,341.16 L472.896,341.16 C466.944,341.16 463.968,338.184 463.968,332.232 L463.968,332.232 L463.968,299.4 L483.264,299.4 L483.264,295.56 L463.968,295.56 L463.968,278.76 L459.648,278.76 L459.648,331.272 C459.648,340.424 464.224,345 473.376,345 L473.376,345 L481.536,345 Z M531.456,345 L531.456,309.288 C531.456,300.136 526.912,295.56 517.824,295.56 L517.824,295.56 L500.256,295.56 L497.568,297.576 L497.568,299.4 L518.208,299.4 C524.16,299.4 527.136,302.376 527.136,308.328 L527.136,308.328 L527.136,316.968 L506.976,316.968 C497.76,316.968 493.152,321.64 493.152,330.984 C493.152,340.328 497.76,345 506.976,345 L506.976,345 L531.456,345 Z M527.136,341.16 L506.4,341.16 C500.448,341.16 497.472,338.184 497.472,332.232 L497.472,332.232 L497.472,329.736 C497.472,323.784 500.448,320.808 506.4,320.808 L506.4,320.808 L527.136,320.808 L527.136,341.16 Z M568.896,345 L571.584,342.984 L571.584,341.16 L560.256,341.16 C554.304,341.16 551.328,338.184 551.328,332.232 L551.328,332.232 L551.328,299.4 L570.624,299.4 L570.624,295.56 L551.328,295.56 L551.328,278.76 L547.008,278.76 L547.008,331.272 C547.008,340.424 551.584,345 560.736,345 L560.736,345 L568.896,345 Z M617.664,345 L620.352,342.984 L620.352,341.16 L595.68,341.16 C589.728,341.16 586.752,338.184 586.752,332.232 L586.752,332.232 L586.752,322.056 L622.272,322.056 L622.272,309.288 C622.272,300.136 617.728,295.56 608.64,295.56 L608.64,295.56 L596.16,295.56 C587.008,295.56 582.432,300.136 582.432,309.288 L582.432,309.288 L582.432,331.272 C582.432,340.424 587.008,345 596.16,345 L596.16,345 L617.664,345 Z M617.952,318.216 L586.752,318.216 L586.752,308.328 C586.752,302.376 589.728,299.4 595.68,299.4 L595.68,299.4 L609.024,299.4 C614.976,299.4 617.952,302.376 617.952,308.328 L617.952,308.328 L617.952,318.216 Z M13.728,441 L13.728,379.464 L37.824,430.824 L43.104,430.824 L67.2,379.464 L67.2,441 L71.808,441 L71.808,374.76 L64.704,374.76 L40.512,426.216 L16.224,374.76 L9.12,374.76 L9.12,441 L13.728,441 Z M124.704,441 L124.704,405.288 C124.704,396.136 120.16,391.56 111.072,391.56 L111.072,391.56 L93.504,391.56 L90.816,393.576 L90.816,395.4 L111.456,395.4 C117.408,395.4 120.384,398.376 120.384,404.328 L120.384,404.328 L120.384,412.968 L100.224,412.968 C91.008,412.968 86.4,417.64 86.4,426.984 C86.4,436.328 91.008,441 100.224,441 L100.224,441 L124.704,441 Z M120.384,437.16 L99.648,437.16 C93.696,437.16 90.72,434.184 90.72,428.232 L90.72,428.232 L90.72,425.736 C90.72,419.784 93.696,416.808 99.648,416.808 L99.648,416.808 L120.384,416.808 L120.384,437.16 Z M144.96,441 L144.96,395.4 L167.232,395.4 C173.184,395.4 176.16,398.376 176.16,404.328 L176.16,404.328 L176.16,441 L180.48,441 L180.48,405.288 C180.48,396.136 175.936,391.56 166.848,391.56 L166.848,391.56 L140.64,391.56 L140.64,441 L144.96,441 Z M232.032,441 L232.032,405.288 C232.032,396.136 227.488,391.56 218.4,391.56 L218.4,391.56 L200.832,391.56 L198.144,393.576 L198.144,395.4 L218.784,395.4 C224.736,395.4 227.712,398.376 227.712,404.328 L227.712,404.328 L227.712,412.968 L207.552,412.968 C198.336,412.968 193.728,417.64 193.728,426.984 C193.728,436.328 198.336,441 207.552,441 L207.552,441 L232.032,441 Z M227.712,437.16 L206.976,437.16 C201.024,437.16 198.048,434.184 198.048,428.232 L198.048,428.232 L198.048,425.736 C198.048,419.784 201.024,416.808 206.976,416.808 L206.976,416.808 L227.712,416.808 L227.712,437.16 Z M273.6,460.2 C282.752,460.2 287.328,455.624 287.328,446.472 L287.328,446.472 L287.328,391.56 L261.12,391.56 C251.968,391.56 247.392,396.136 247.392,405.288 L247.392,405.288 L247.392,427.272 C247.392,436.424 251.968,441 261.12,441 L261.12,441 L283.008,441 L283.008,447.432 C283.008,453.384 280.032,456.36 274.08,456.36 L274.08,456.36 L250.944,456.36 L250.944,458.184 L253.632,460.2 L273.6,460.2 Z M283.008,437.16 L260.64,437.16 C254.688,437.16 251.712,434.184 251.712,428.232 L251.712,428.232 L251.712,404.328 C251.712,398.376 254.688,395.4 260.64,395.4 L260.64,395.4 L283.008,395.4 L283.008,437.16 Z M338.304,441 L340.992,438.984 L340.992,437.16 L316.32,437.16 C310.368,437.16 307.392,434.184 307.392,428.232 L307.392,428.232 L307.392,418.056 L342.912,418.056 L342.912,405.288 C342.912,396.136 338.368,391.56 329.28,391.56 L329.28,391.56 L316.8,391.56 C307.648,391.56 303.072,396.136 303.072,405.288 L303.072,405.288 L303.072,427.272 C303.072,436.424 307.648,441 316.8,441 L316.8,441 L338.304,441 Z M338.592,414.216 L307.392,414.216 L307.392,404.328 C307.392,398.376 310.368,395.4 316.32,395.4 L316.32,395.4 L329.664,395.4 C335.616,395.4 338.592,398.376 338.592,404.328 L338.592,404.328 L338.592,414.216 Z M362.784,441 L362.784,395.4 L391.104,395.4 L391.104,441 L395.424,441 L395.424,395.4 L414.816,395.4 C420.768,395.4 423.744,398.376 423.744,404.328 L423.744,404.328 L423.744,441 L428.064,441 L428.064,405.288 C428.064,396.136 423.52,391.56 414.432,391.56 L414.432,391.56 L358.464,391.56 L358.464,441 L362.784,441 Z M478.464,441 L481.152,438.984 L481.152,437.16 L456.48,437.16 C450.528,437.16 447.552,434.184 447.552,428.232 L447.552,428.232 L447.552,418.056 L483.072,418.056 L483.072,405.288 C483.072,396.136 478.528,391.56 469.44,391.56 L469.44,391.56 L456.96,391.56 C447.808,391.56 443.232,396.136 443.232,405.288 L443.232,405.288 L443.232,427.272 C443.232,436.424 447.808,441 456.96,441 L456.96,441 L478.464,441 Z M478.752,414.216 L447.552,414.216 L447.552,404.328 C447.552,398.376 450.528,395.4 456.48,395.4 L456.48,395.4 L469.824,395.4 C475.776,395.4 478.752,398.376 478.752,404.328 L478.752,404.328 L478.752,414.216 Z M502.944,441 L502.944,395.4 L525.216,395.4 C531.168,395.4 534.144,398.376 534.144,404.328 L534.144,404.328 L534.144,441 L538.464,441 L538.464,405.288 C538.464,396.136 533.92,391.56 524.832,391.56 L524.832,391.56 L498.624,391.56 L498.624,441 L502.944,441 Z M575.904,441 L578.592,438.984 L578.592,437.16 L567.264,437.16 C561.312,437.16 558.336,434.184 558.336,428.232 L558.336,428.232 L558.336,395.4 L577.632,395.4 L577.632,391.56 L558.336,391.56 L558.336,374.76 L554.016,374.76 L554.016,427.272 C554.016,436.424 558.592,441 567.744,441 L567.744,441 L575.904,441 Z" id="ReactiveStateManagement"></path>
                <path d="M43.392,152 L43.392,105.92 L65.856,105.92 L89.28,152 L113.088,152 L116.352,146.24 L94.656,103.808 C106.56,99.712 112.512,89.664 112.512,73.664 L112.512,73.664 L112.512,51.776 C112.512,30.272 101.76,19.52 80.256,19.52 L80.256,19.52 L15.744,19.52 L15.744,152 L43.392,152 Z M79.104,80.96 L43.392,80.96 L43.392,44.48 L79.104,44.48 C82.944,44.48 84.864,46.4 84.864,50.24 L84.864,50.24 L84.864,75.2 C84.864,79.04 82.944,80.96 79.104,80.96 L79.104,80.96 Z M156.288,152 L177.792,120.704 L199.296,152 L223.68,152 L225.792,147.584 L192.576,100.736 L224.832,55.04 L222.72,50.624 L198.336,50.624 L177.792,80.96 L157.248,50.624 L132.864,50.624 L130.752,55.04 L163.008,100.736 L129.792,147.584 L131.904,152 L156.288,152 Z M297.216,152 C333.312,152 351.36,133.952 351.36,97.856 L351.36,97.856 L351.36,73.664 C351.36,37.568 333.312,19.52 297.216,19.52 L297.216,19.52 L246.912,19.52 L246.912,152 L297.216,152 Z M298.752,127.04 L274.56,127.04 L274.56,44.48 L298.752,44.48 C315.392,44.48 323.712,52.8 323.712,69.44 L323.712,69.44 L323.712,102.08 C323.712,118.72 315.392,127.04 298.752,127.04 L298.752,127.04 Z M447.36,152 L458.88,143.36 L458.88,128.96 L408.192,128.96 C404.096,128.96 402.048,126.912 402.048,122.816 L402.048,122.816 L402.048,111.296 L462.72,111.296 L462.72,81.728 C462.72,60.992 452.352,50.624 431.616,50.624 L431.616,50.624 L406.656,50.624 C385.92,50.624 375.552,60.992 375.552,81.728 L375.552,81.728 L375.552,120.896 C375.552,141.632 385.92,152 406.656,152 L406.656,152 L447.36,152 Z M436.224,90.56 L402.048,90.56 L402.048,79.808 C402.048,75.712 404.096,73.664 408.192,73.664 L408.192,73.664 L430.08,73.664 C434.176,73.664 436.224,75.712 436.224,79.808 L436.224,79.808 L436.224,90.56 Z M559.104,152 L570.624,143.36 L570.624,128.96 L519.936,128.96 C515.84,128.96 513.792,126.912 513.792,122.816 L513.792,122.816 L513.792,111.296 L574.464,111.296 L574.464,81.728 C574.464,60.992 564.096,50.624 543.36,50.624 L543.36,50.624 L518.4,50.624 C497.664,50.624 487.296,60.992 487.296,81.728 L487.296,81.728 L487.296,120.896 C487.296,141.632 497.664,152 518.4,152 L518.4,152 L559.104,152 Z M547.968,90.56 L513.792,90.56 L513.792,79.808 C513.792,75.712 515.84,73.664 519.936,73.664 L519.936,73.664 L541.824,73.664 C545.92,73.664 547.968,75.712 547.968,79.808 L547.968,79.808 L547.968,90.56 Z M627.072,190.4 L627.072,152 L656.64,152 C677.376,152 687.744,141.632 687.744,120.896 L687.744,120.896 L687.744,81.728 C687.744,60.992 677.376,50.624 656.64,50.624 L656.64,50.624 L600.576,50.624 L600.576,190.4 L627.072,190.4 Z M655.104,128.96 L627.072,128.96 L627.072,73.664 L655.104,73.664 C659.2,73.664 661.248,75.712 661.248,79.808 L661.248,79.808 L661.248,122.816 C661.248,126.912 659.2,128.96 655.104,128.96 L655.104,128.96 Z" id="RxDeep"></path>
            </g>
        </g>
    </g>
</svg>