<?xml version="1.0" encoding="UTF-8"?>
<svg width="324px" height="618px" viewBox="0 0 324 618" version="1.1" xmlns="http://www.w3.org/2000/svg" xmlns:xlink="http://www.w3.org/1999/xlink">
    <title>Group 3</title>
    <defs>
        <linearGradient x1="50%" y1="9.02229291%" x2="50%" y2="39.1992432%" id="linearGradient-1">
            <stop stop-color="#632F88" offset="0%"></stop>
            <stop stop-color="#E01D85" offset="100%"></stop>
        </linearGradient>
        <linearGradient x1="50%" y1="14.9048624%" x2="46.5920968%" y2="67.0321953%" id="linearGradient-2">
            <stop stop-color="#DA1F85" offset="0%"></stop>
            <stop stop-color="#B52486" offset="43.8126605%"></stop>
            <stop stop-color="#5D2F88" offset="100%"></stop>
        </linearGradient>
    </defs>
    <g id="misc" stroke="none" stroke-width="1" fill="none" fill-rule="evenodd">
        <g id="rxdeep-banner" transform="translate(-919.000000, -441.000000)">
            <g id="Group-3" transform="translate(919.000000, 441.000000)">
                <path d="M76.40625,210 L80.8700522,216.232479 C87.1385008,224.984652 85.1250439,237.161272 76.3728705,243.429721 C73.4247993,245.541177 69.946192,246.788427 66.328125,247.03125 L54.4376985,247.829265 C43.586874,248.557508 35.3809005,257.944198 36.1091438,268.795022 C36.1787421,269.832037 36.3303345,270.861914 36.5625,271.875 L36.6315349,272.176243 C39.5828891,285.05488 32.9609676,298.21268 20.859375,303.515625 C12.6092006,307.13087 8.85184789,316.749693 12.4670929,324.999867 C13.184048,326.635996 14.1649191,328.143228 15.3705232,329.461355 L17.578125,331.875 C25.5791545,340.622792 39.1567572,341.228163 47.9045495,333.227134 C48.9311892,332.288134 49.8641043,331.251545 50.6901372,330.132 C92.0489352,274.076499 115.152223,240.594999 120,229.6875 C131.128147,204.64917 124.096897,177.30542 98.90625,147.65625 L88.4037297,153.791386 C69.8632647,164.621954 63.6131588,188.431881 74.4437275,206.972347 C75.0506945,208.011392 75.7055736,209.021697 76.40625,210 Z" id="Path-8" fill="#DF1D84"></path>
                <path d="M275.15625,207.65625 L279.620052,213.888729 C285.888501,222.640902 283.875044,234.817522 275.12287,241.085971 C272.174799,243.197427 268.696192,244.444677 265.078125,244.6875 L253.187698,245.485515 C242.336874,246.213758 234.130901,255.600448 234.859144,266.451272 C234.928742,267.488287 235.080334,268.518164 235.3125,269.53125 L235.381535,269.832493 C238.332889,282.71113 231.710968,295.86893 219.609375,301.171875 C211.359201,304.78712 207.601848,314.405943 211.217093,322.656117 C211.934048,324.292246 212.914919,325.799478 214.120523,327.117605 L216.328125,329.53125 C224.329154,338.279042 237.906757,338.884413 246.654549,330.883384 C247.681189,329.944384 248.614104,328.907795 249.440137,327.78825 C290.798935,271.732749 313.902223,238.251249 318.75,227.34375 C329.878147,202.30542 322.846897,174.96167 297.65625,145.3125 L287.15373,151.447636 C268.613265,162.278204 262.363159,186.088131 273.193727,204.628597 C273.800694,205.667642 274.455574,206.677947 275.15625,207.65625 Z" id="Path-8-Copy" fill="#DF1D84" transform="translate(261.307264, 247.031250) scale(-1, 1) translate(-261.307264, -247.031250) "></path>
                <path d="M198.046122,468.339284 L266.32667,536.619385 C284.333075,555.344692 284.114305,585.123012 265.663758,603.573559 C247.178535,622.058782 217.322918,622.243634 198.610287,604.128115 L198.046672,603.573559 L197.869694,603.396581 C207.218158,612.577789 222.239334,612.526527 231.523759,603.242102 C240.76637,593.999491 240.858796,579.071683 231.801037,569.715367 L231.523759,569.433559 L164.237997,502.147409 L198.046122,468.339284 Z M265.663309,400.722096 L300.798126,435.856669 L300.773072,435.882692 C318.133678,454.63646 317.700088,483.920143 299.472301,502.14793 C280.987078,520.633153 251.131461,520.818005 232.41883,502.702486 L231.855215,502.14793 L231.678928,501.97026 C241.026701,511.15216 256.047877,511.100898 265.332302,501.816473 C274.574913,492.573862 274.667339,477.646054 265.60958,468.289738 L265.332302,468.00793 L231.854247,434.530221 L265.663309,400.722096 Z M130.428934,400.722096 L164.237997,434.530221 L130.428934,468.339284 L96.6208094,434.530221 L130.428934,400.722096 Z M62.8125,265.488129 C76.5764885,251.72414 132.751552,235.54294 164.241002,241.099336 C157.051168,242.366919 151.151552,244.766163 147.333857,248.583857 C138.091246,257.826469 137.99882,272.754277 147.056579,282.110593 L147.333857,282.3924 L164.237997,299.295846 L130.428934,333.104909 L113.525314,316.200943 C103.024779,305.700408 89.3297363,306.840747 79.9982018,315.923288 L79.7167715,316.200943 C70.4741599,325.443555 70.3817337,340.371363 79.4394931,349.727679 L79.7167715,350.009486 L96.6208094,366.913034 L62.8117469,400.722096 L50.8800731,388.789874 C17.7377573,355.647558 13.8328705,315.358315 49.7785997,278.535332 L50.8800731,277.420556 L62.8125,265.488129 Z M198.046122,333.104909 L231.855184,366.913034 L198.046122,400.722096 L164.237997,366.913971 L198.046122,333.104909 Z" id="Shape" fill="url(#linearGradient-1)"></path>
                <path d="M164.0625,-5.32907052e-14 C216.346607,-5.32907052e-14 258.830245,41.9607967 259.674689,94.0436658 L259.6875,95.625 L259.6875,135.551669 C252.41509,140.098638 246.016434,145.912933 240.800771,152.685281 C240.543171,153.036685 240.280674,153.384167 240.015871,153.72979 C231.168807,165.652865 225.9375,180.418639 225.9375,196.40625 C225.9375,214.060444 232.316298,230.224789 242.895069,242.720234 L277.596185,277.420556 C314.719291,314.543662 311.073271,355.312787 277.596185,388.789874 L96.9524993,569.433559 C87.6165279,578.769531 87.6165279,593.906131 96.9524993,603.242102 C106.236924,612.526527 121.258099,612.577789 130.606564,603.396581 L130.429586,603.573559 C111.757643,622.245501 81.4844427,622.245501 62.8125,603.573559 C44.3619532,585.123012 44.1431824,555.344692 62.1561877,536.625515 L62.1495874,536.619385 L96.620625,502.1475 L96.0574275,502.702486 C77.3447964,520.818005 47.4891803,520.633153 29.003957,502.14793 C10.7761701,483.920143 10.3425796,454.63646 27.7031856,435.882692 L27.6781318,435.856669 L181.1424,282.3924 C190.478372,273.056429 190.478372,257.919829 181.1424,248.583857 C160.59211,228.033567 79.7167715,248.583857 62.8125,265.488129 L81.1331127,247.167061 C94.1402931,234.184745 102.1875,216.235261 102.1875,196.40625 C102.1875,180.418689 96.9562256,165.652958 88.1118051,153.727399 C87.8443261,153.384167 87.5818289,153.036685 87.3216605,152.687365 C82.1086054,145.913057 75.709941,140.098766 68.4375,135.551789 L68.4375,95.625 L68.450311,94.0436658 C69.2947554,41.9607967 111.778393,-5.32907052e-14 164.0625,-5.32907052e-14 Z M214.950943,316.200943 L63.1439563,468.00793 C53.807985,477.343902 53.807985,492.480502 63.1439563,501.816473 C72.4283807,511.100898 87.4495565,511.15216 96.7973299,501.97026 L248.759486,350.009486 C258.095458,340.673515 258.095458,325.536915 248.759486,316.200943 C239.423515,306.864972 225.557545,305.594342 214.950943,316.200943 Z" id="Shape" fill="url(#linearGradient-2)"></path>
                <circle id="Oval" fill="#FFFFFF" cx="162.5" cy="90" r="10"></circle>
            </g>
        </g>
    </g>
</svg>